# Blender v2.83.9 OBJ File: ''
# www.blender.org
mtllib Diamond.mtl
o Cylinder
v -0.010921 0.887585 -0.693816
v 0.000000 0.891967 -0.687867
v 0.010921 0.887585 -0.693816
v 0.000000 0.884282 -0.698491
v 0.430194 0.500877 -0.893307
v 0.440533 0.497115 -0.888220
v 0.436118 0.486850 -0.892689
v 0.426018 0.486850 -0.897554
v 0.419771 0.497115 -0.898218
v -0.430194 0.500877 -0.893307
v -0.419771 0.497115 -0.898218
v -0.426018 0.486850 -0.897554
v -0.436118 0.486850 -0.892690
v -0.440533 0.497115 -0.888220
v 0.535639 0.887585 -0.441126
v 0.537796 0.891967 -0.428879
v 0.549257 0.887585 -0.424050
v 0.546103 0.884282 -0.435503
v 0.966637 0.500877 -0.220629
v 0.969106 0.497115 -0.209373
v 0.969848 0.486850 -0.215612
v 0.967353 0.486850 -0.226541
v 0.963978 0.497115 -0.231840
v 0.678852 0.887585 0.143742
v 0.670622 0.891967 0.153065
v 0.673991 0.887585 0.165036
v 0.680979 0.884282 0.155429
v 0.775182 0.500876 0.618188
v 0.767922 0.497115 0.627135
v 0.773262 0.486850 0.623826
v 0.780252 0.486850 0.615061
v 0.782290 0.497115 0.609118
v 0.310875 0.887585 0.620370
v 0.298454 0.891967 0.619748
v 0.291197 0.887585 0.629846
v 0.303064 0.884282 0.629320
v 0.000000 0.500876 0.991496
v -0.011522 0.497115 0.991398
v -0.005605 0.486850 0.993510
v 0.005605 0.486850 0.993510
v 0.011522 0.497115 0.991398
v -0.291197 0.887585 0.629846
v -0.298454 0.891967 0.619748
v -0.310875 0.887585 0.620370
v -0.303064 0.884282 0.629320
v -0.775182 0.500876 0.618188
v -0.782290 0.497115 0.609118
v -0.780252 0.486850 0.615061
v -0.773262 0.486850 0.623826
v -0.767922 0.497115 0.627135
v -0.673991 0.887585 0.165036
v -0.670622 0.891967 0.153065
v -0.678852 0.887585 0.143742
v -0.680979 0.884282 0.155429
v -0.966637 0.500877 -0.220629
v -0.963978 0.497115 -0.231840
v -0.967353 0.486850 -0.226541
v -0.969848 0.486850 -0.215612
v -0.969106 0.497115 -0.209373
v -0.549257 0.887585 -0.424050
v -0.537796 0.891967 -0.428879
v -0.535639 0.887585 -0.441126
v -0.546103 0.884282 -0.435503
v 0.012595 -0.790864 0.002875
v 0.005605 -0.790864 0.011639
v -0.005605 -0.790864 0.011639
v -0.012595 -0.790864 0.002875
v -0.010100 -0.790864 -0.008055
v -0.000000 -0.790864 -0.012919
v 0.010100 -0.790864 -0.008055
vt 0.312603 0.335705
vt 0.194911 0.361744
vt 0.224343 0.214157
vt 0.673970 0.841652
vt 0.477027 0.834845
vt 0.587914 0.479037
vt 0.477027 0.112736
vt 0.673970 0.105929
vt 0.587914 0.468545
vt 0.676670 0.106570
vt 0.849553 0.201143
vt 0.590614 0.469186
vt 0.851549 0.203072
vt 0.952038 0.372584
vt 0.592610 0.471114
vt 0.952771 0.375260
vt 0.952771 0.572321
vt 0.593344 0.473791
vt 0.952038 0.574997
vt 0.851548 0.744509
vt 0.592610 0.476468
vt 0.314665 0.338155
vt 0.409736 0.419372
vt 0.411453 0.544815
vt 0.312420 0.620622
vt 0.190841 0.593041
vt 0.139893 0.478820
vt 0.194046 0.364841
vt 0.136551 0.478786
vt 0.035673 0.592911
vt 0.038087 0.361977
vt 0.188724 0.595640
vt 0.216039 0.743789
vt 0.038100 0.598185
vt 0.313133 0.623887
vt 0.446889 0.695867
vt 0.221676 0.745116
vt 0.414460 0.546296
vt 0.552147 0.485712
vt 0.451456 0.692309
vt 0.849552 0.746438
vt 0.676670 0.841011
vt 0.590614 0.478396
vt 0.315443 0.334902
vt 0.227078 0.213211
vt 0.449719 0.267818
vt 0.191652 0.596137
vt 0.310283 0.623025
vt 0.218934 0.744110
vt 0.191984 0.362202
vt 0.040634 0.356739
vt 0.221451 0.214440
vt 0.315363 0.621914
vt 0.412008 0.547970
vt 0.448961 0.693810
vt 0.137971 0.481415
vt 0.187659 0.592862
vt 0.037214 0.595405
vt 0.414264 0.543323
vt 0.412555 0.420934
vt 0.551789 0.482811
vt 0.190860 0.364969
vt 0.138036 0.476183
vt 0.039689 0.359512
vt 0.412752 0.417956
vt 0.454180 0.271521
vt 0.552151 0.479906
vt 0.317597 0.336949
vt 0.222964 0.214440
vt 0.223484 0.211830
vt 0.224152 0.211683
vt 0.225712 0.213832
vt 0.451715 0.269944
vt 0.450646 0.269001
vt 0.453017 0.267816
vt 0.453543 0.268266
vt 0.452812 0.270852
vt 0.039052 0.360801
vt 0.037313 0.358738
vt 0.037613 0.358107
vt 0.040286 0.358203
vt 0.037774 0.596716
vt 0.035114 0.596761
vt 0.034832 0.596128
vt 0.036613 0.594113
vt 0.220315 0.744446
vt 0.218699 0.746587
vt 0.218026 0.746434
vt 0.217544 0.743818
vt 0.450103 0.692964
vt 0.450756 0.695543
vt 0.450208 0.695962
vt 0.447846 0.694691
vt 0.551791 0.481382
vt 0.554253 0.482476
vt 0.554263 0.483170
vt 0.551831 0.484240
vt 0.410336 0.416205
vt 0.589264 0.468866
vt 0.588979 0.470067
vt 0.588623 0.471566
vt 0.587415 0.471608
vt 0.586956 0.470137
vt 0.586589 0.468958
vt 0.848950 0.748349
vt 0.678604 0.841535
vt 0.038449 0.356743
vt 0.221957 0.212326
vt 0.034283 0.594611
vt 0.036732 0.360240
vt 0.216514 0.745910
vt 0.035927 0.598139
vt 0.448856 0.696831
vt 0.220291 0.746813
vt 0.554100 0.484763
vt 0.451909 0.694434
vt 0.952495 0.576948
vt 0.853479 0.743974
vt 0.475702 0.113149
vn 0.3169 0.6830 -0.6580
vn 0.6428 -0.5692 -0.5126
vn 0.8016 -0.5692 0.1830
vn 0.3567 -0.5692 0.7408
vn -0.3567 -0.5692 0.7408
vn -0.8016 -0.5692 0.1830
vn -0.6428 -0.5692 -0.5126
vn 0.0000 1.0000 0.0000
vn 0.8664 0.4585 0.1978
vn 0.3856 0.4585 0.8007
vn -0.3856 0.4585 0.8007
vn -0.8664 0.4585 0.1978
vn 0.0000 -0.5692 -0.8222
vn 0.0000 0.4585 -0.8887
vn 0.0000 0.6830 0.7304
vn 0.6948 0.4585 -0.5541
vn -0.5710 0.6830 0.4554
vn 0.5710 0.6830 0.4554
vn -0.7121 0.6830 -0.1625
vn 0.7121 0.6830 -0.1625
vn -0.6948 0.4585 -0.5541
vn 0.0000 0.8102 -0.5861
vn 0.4284 0.1579 -0.8897
vn -0.4284 0.1579 -0.8897
vn 0.4582 0.8102 -0.3654
vn 0.9627 0.1579 -0.2197
vn 0.5714 0.8102 0.1304
vn 0.7720 0.1579 0.6157
vn 0.2543 0.8102 0.5281
vn 0.0000 0.1579 0.9875
vn -0.2543 0.8102 0.5281
vn -0.7720 0.1579 0.6157
vn -0.5714 0.8102 0.1304
vn -0.9627 0.1579 -0.2197
vn -0.4582 0.8102 -0.3654
vn -0.0000 -1.0000 -0.0000
vn -0.1626 0.5859 -0.7939
vn 0.1626 0.5859 -0.7939
vn 0.0000 -0.0646 -0.9979
vn 0.5193 0.5859 -0.6222
vn 0.7221 0.5859 -0.3678
vn 0.7802 -0.0646 -0.6222
vn 0.8102 0.5859 0.0181
vn 0.7378 0.5859 0.3352
vn 0.9729 -0.0646 0.2221
vn 0.4910 0.5859 0.6447
vn 0.1979 0.5859 0.7858
vn 0.4330 -0.0646 0.8991
vn -0.1979 0.5859 0.7858
vn -0.4910 0.5859 0.6447
vn -0.4330 -0.0646 0.8991
vn -0.7378 0.5859 0.3352
vn -0.8102 0.5859 0.0181
vn -0.9729 -0.0646 0.2221
vn -0.7221 0.5859 -0.3678
vn -0.5193 0.5859 -0.6222
vn -0.7802 -0.0646 -0.6222
vn 0.1727 0.9173 -0.3587
vn 0.3881 0.9173 -0.0886
vn 0.3112 0.9173 0.2482
vn 0.0000 0.9174 0.3981
vn -0.3112 0.9173 0.2482
vn -0.1727 0.9173 -0.3587
vn -0.3881 0.9173 -0.0886
vn 0.6199 -0.6093 0.4944
vn -0.0000 -0.6093 0.7929
vn -0.3440 -0.6093 -0.7144
vn 0.3440 -0.6093 -0.7144
vn -0.6199 -0.6093 0.4944
vn 0.7730 -0.6093 -0.1764
vn -0.7730 -0.6093 -0.1764
vn -0.3169 0.6830 -0.6580
usemtl Material.003
s 1
f 3/1/1 15/2/1 5/3/1
f 7/4/2 22/5/2 70/6/2
f 21/7/3 31/8/3 64/9/3
f 30/10/4 40/11/4 65/12/4
f 39/13/5 49/14/5 66/15/5
f 48/16/6 58/17/6 67/18/6
f 57/19/7 13/20/7 68/21/7
f 2/22/8 61/23/8 52/24/8 43/25/8 34/26/8 25/27/8 16/28/8
f 27/29/9 32/30/9 20/31/9
f 36/32/10 41/33/10 29/34/10
f 45/35/11 50/36/11 38/37/11
f 54/38/12 59/39/12 47/40/12
f 12/41/13 8/42/13 69/43/13
f 4/44/14 9/45/14 11/46/14
f 35/47/15 42/48/15 37/49/15
f 18/50/16 23/51/16 6/52/16
f 44/53/17 51/54/17 46/55/17
f 26/56/18 33/57/18 28/58/18
f 53/59/19 60/60/19 55/61/19
f 17/62/20 24/63/20 19/64/20
f 63/65/21 14/66/21 56/67/21
f 1/68/22 2/22/22 3/1/22 4/44/22
f 5/3/23 6/69/23 7/70/23 8/71/23 9/72/23
f 10/73/24 11/74/24 12/75/24 13/76/24 14/77/24
f 15/2/25 16/28/25 17/62/25 18/50/25
f 19/64/26 20/78/26 21/79/26 22/80/26 23/81/26
f 24/63/27 25/27/27 26/56/27 27/29/27
f 28/58/28 29/82/28 30/83/28 31/84/28 32/85/28
f 33/57/29 34/26/29 35/47/29 36/32/29
f 37/49/30 38/86/30 39/87/30 40/88/30 41/89/30
f 42/48/31 43/25/31 44/53/31 45/35/31
f 46/55/32 47/90/32 48/91/32 49/92/32 50/93/32
f 51/54/33 52/24/33 53/59/33 54/38/33
f 55/61/34 56/94/34 57/95/34 58/96/34 59/97/34
f 60/60/35 61/23/35 62/98/35 63/65/35
f 64/9/36 65/99/36 66/100/36 67/101/36 68/102/36 69/103/36 70/104/36
f 4/44/37 11/46/37 10/73/37 1/68/37
f 3/1/38 5/3/38 9/45/38 4/44/38
f 8/42/39 12/41/39 11/105/39 9/106/39
f 5/3/40 15/2/40 18/50/40 6/52/40
f 17/62/41 19/64/41 23/51/41 18/50/41
f 6/52/42 23/51/42 22/107/42 7/108/42
f 19/64/43 24/63/43 27/29/43 20/31/43
f 26/56/44 28/58/44 32/30/44 27/29/44
f 20/31/45 32/30/45 31/109/45 21/110/45
f 28/58/46 33/57/46 36/32/46 29/34/46
f 35/47/47 37/49/47 41/33/47 36/32/47
f 29/34/48 41/33/48 40/111/48 30/112/48
f 37/49/49 42/48/49 45/35/49 38/37/49
f 44/53/50 46/55/50 50/36/50 45/35/50
f 38/37/51 50/36/51 49/113/51 39/114/51
f 46/55/52 51/54/52 54/38/52 47/40/52
f 53/59/53 55/61/53 59/39/53 54/38/53
f 47/40/54 59/39/54 58/115/54 48/116/54
f 55/61/55 60/60/55 63/65/55 56/67/55
f 14/66/56 63/65/56 62/98/56 10/73/56
f 13/20/57 57/19/57 56/117/57 14/118/57
f 2/22/58 16/28/58 15/2/58 3/1/58
f 16/28/59 25/27/59 24/63/59 17/62/59
f 25/27/60 34/26/60 33/57/60 26/56/60
f 34/26/61 43/25/61 42/48/61 35/47/61
f 43/25/62 52/24/62 51/54/62 44/53/62
f 1/68/63 62/98/63 61/23/63 2/22/63
f 52/24/64 61/23/64 60/60/64 53/59/64
f 30/10/65 65/12/65 64/9/65 31/8/65
f 39/13/66 66/15/66 65/12/66 40/11/66
f 12/41/67 69/43/67 68/21/67 13/20/67
f 7/4/68 70/6/68 69/43/68 8/42/68
f 48/16/69 67/18/69 66/15/69 49/14/69
f 21/7/70 64/9/70 70/104/70 22/119/70
f 57/19/71 68/21/71 67/18/71 58/17/71
f 62/98/72 1/68/72 10/73/72
